<?xml version="1.0" encoding="UTF-8" standalone="no"?>
<!-- Created with Inkscape (http://www.inkscape.org/) -->

<svg
   version="1.1"
   id="svg1"
   width="5333.3335"
   height="5333.3335"
   viewBox="0 0 5333.3335 5333.3335"
   sodipodi:docname="6000_2_07.eps"
   xmlns:inkscape="http://www.inkscape.org/namespaces/inkscape"
   xmlns:sodipodi="http://sodipodi.sourceforge.net/DTD/sodipodi-0.dtd"
   xmlns="http://www.w3.org/2000/svg"
   xmlns:svg="http://www.w3.org/2000/svg">
  <defs
     id="defs1" />
  <sodipodi:namedview
     id="namedview1"
     pagecolor="#ffffff"
     bordercolor="#000000"
     borderopacity="0.25"
     inkscape:showpageshadow="2"
     inkscape:pageopacity="0.0"
     inkscape:pagecheckerboard="0"
     inkscape:deskcolor="#d1d1d1">
    <inkscape:page
       x="0"
       y="0"
       inkscape:label="1"
       id="page1"
       width="5333.3335"
       height="5333.3335"
       margin="0"
       bleed="0" />
  </sodipodi:namedview>
  <g
     id="g1"
     inkscape:groupmode="layer"
     inkscape:label="1">
    <g
       id="group-R5">
      <path
         id="path3"
         d="m 8046.46,14730.3 c 0,0 17652.94,12985.8 25647.64,19522.8 0,0 2848.9,-10357.7 -15635.9,-20958.3 l -1325.1,3172.9 c 0,0 -1943.5,-29.5 -2444.1,-1619.6 -500.5,-1590.1 -382.8,-2002.3 -2709,-2885.7 -2326.25,-883.4 -853.9,-2414.6 -3533.54,-2591.3 -2679.6,-176.6 -2650.15,2915.2 0,5359.2"
         style="fill:#ffffff;fill-opacity:1;fill-rule:nonzero;stroke:none"
         transform="matrix(0.13333333,0,0,-0.13333333,0,5333.3333)" />
      <path
         id="path4"
         d="m 15369.5,20095.8 1416.2,-3606.1 v -0.1 l 1259.5,-3015.8 c -126.6,271.6 -314.5,782.2 -251.6,1417.7 26.1,263.9 97.4,983.7 619.2,1372.3 107.4,80 201.6,122 229.3,134.4 1906.7,856.1 3900.5,1616 5579.8,2860.3 2846.8,2109.5 6816.6,6155 9569.2,13449.8 -3.3,750 -91.2,1251.3 -131.9,1442.6 -4629.4,-3780.3 -12498.9,-9728 -18289.7,-14055.1"
         style="fill:#aaacb5;fill-opacity:1;fill-rule:nonzero;stroke:none"
         transform="matrix(0.13333333,0,0,-0.13333333,0,5333.3333)" />
      <path
         id="path5"
         d="m 8114.56,13109 c 296.29,0 537.36,-241.1 537.36,-537.4 0,-296.3 -241.07,-537.4 -537.36,-537.4 -296.35,0 -537.42,241.1 -537.42,537.4 0,296.3 241.07,537.4 537.42,537.4 m 2665.74,2315.3 c 296.3,0 537.4,-241.1 537.4,-537.4 0,-296.3 -241.1,-537.4 -537.4,-537.4 -296.3,0 -537.4,241.1 -537.4,537.4 0,296.3 241.1,537.4 537.4,537.4 M 7376.67,10866.8 c 886.59,-116.6 1313.76,464.8 1765.77,1080.7 248.05,338 504.55,687.5 844.75,919.6 351.81,240.1 776.01,387 1186.21,529 699.3,242.1 1359.7,470.7 1608.4,1122.7 l 4.3,11 c 412.9,1082.7 978.2,2561.6 3374.5,3239.5 L 15274.7,20025 C 11219.6,16995.4 8206.09,14776.9 8082.86,14686.3 7472.79,14123.2 6986.48,13506.6 6647.83,12896.6 l -0.4,-1.7 c -9.31,-26 -335.3,-1002.1 12.25,-1594.5 143.02,-243.8 384.21,-389.7 716.99,-433.6"
         style="fill:#ad5833;fill-opacity:1;fill-rule:nonzero;stroke:none"
         transform="matrix(0.13333333,0,0,-0.13333333,0,5333.3333)" />
      <path
         id="path6"
         d="m 12892.7,14489.2 -4.2,-11.1 c -267.7,-701.7 -952.6,-938.8 -1677.8,-1189.8 -403.1,-139.6 -820,-284 -1159.2,-515.4 -324.06,-221.2 -574.72,-562.7 -817.08,-892.9 -412.73,-562.4 -838.33,-1142.2 -1636.33,-1142.3 -75.39,0 -154,5.2 -236.35,16.1 -393.01,51.8 -672.09,234.1 -829.48,541.8 -181.72,355.2 -163.28,809 -108.01,1150.7 -348.43,-796.6 -427.66,-1555.7 -177.81,-2137.9 268.83,-626.3 906.87,-939.4 1796.3,-880.3 1411.42,93 1643.31,569.4 1911.74,1120.9 239.92,492.9 511.92,1051.5 1605.22,1466.7 2057.2,781.3 2177.5,1186 2534.7,2387.7 43.2,145.3 87.9,295.6 140.2,461.8 448.4,1424.3 2040,1626.9 2416.6,1655 l -448.7,1142.5 C 13852,17001.6 13297.6,15550.8 12892.7,14489.2"
         style="fill:#ad5833;fill-opacity:1;fill-rule:nonzero;stroke:none"
         transform="matrix(0.13333333,0,0,-0.13333333,0,5333.3333)" />
      <path
         id="path7"
         d="m 10780.3,14463.6 c 233.4,0 423.3,189.9 423.3,423.3 0,233.4 -189.9,423.3 -423.3,423.3 -233.4,0 -423.3,-189.9 -423.3,-423.3 0,-233.4 189.9,-423.3 423.3,-423.3"
         style="fill:#d3d3d3;fill-opacity:1;fill-rule:nonzero;stroke:none"
         transform="matrix(0.13333333,0,0,-0.13333333,0,5333.3333)" />
      <path
         id="path8"
         d="m 8114.56,12148.3 c 233.39,0 423.26,189.9 423.26,423.3 0,233.4 -189.87,423.3 -423.26,423.3 -233.44,0 -423.32,-189.9 -423.32,-423.3 0,-233.4 189.88,-423.3 423.32,-423.3"
         style="fill:#d3d3d3;fill-opacity:1;fill-rule:nonzero;stroke:none"
         transform="matrix(0.13333333,0,0,-0.13333333,0,5333.3333)" />
      <path
         id="path9"
         d="m 7704.15,12308.4 c 0,0 -50.62,241.1 -50.62,263.2 0,22 0,115.9 2.76,140.8 2.78,24.8 66.26,173.9 138.03,237.4 49.85,44.1 142.3,106.8 294.95,106.8 67.14,0 145.92,-12.1 237.84,-43.3 300.91,-102.2 210.71,-517.2 210.71,-517.2 0,0 -1.91,2.4 -5.59,6.6 3.68,22.4 5.59,45.4 5.59,68.9 0,233.4 -189.87,423.3 -423.26,423.3 -233.44,0 -423.32,-189.9 -423.32,-423.3 0,-67.8 16,-131.9 44.43,-188.7 -21.89,-44.1 -31.52,-74.5 -31.52,-74.5"
         style="fill:#c0c3d9;fill-opacity:1;fill-rule:nonzero;stroke:none"
         transform="matrix(0.13333333,0,0,-0.13333333,0,5333.3333)" />
      <path
         id="path10"
         d="m 7735.67,12382.9 c -28.43,56.8 -44.43,120.9 -44.43,188.7 0,233.4 189.88,423.3 423.32,423.3 233.39,0 423.26,-189.9 423.26,-423.3 0,-23.5 -1.91,-46.5 -5.59,-68.9 -30.41,35.1 -181.49,197.4 -372,197.4 -33.18,0 -67.58,-4.9 -102.72,-16.3 -176.79,-57.2 -276.09,-208.8 -321.84,-300.9"
         style="fill:#9fa2b8;fill-opacity:1;fill-rule:nonzero;stroke:none"
         transform="matrix(0.13333333,0,0,-0.13333333,0,5333.3333)" />
      <path
         id="path11"
         d="m 10393.2,14715.6 c -13.4,9.8 -69.7,51.3 -78.7,65.9 -10.1,16.6 -47.8,82.8 -53.3,113.2 -5.5,30.4 2.8,124.2 8.3,151.8 1.7,8.7 6.7,24.5 13.1,43.1 80.2,196.2 273.1,334.7 497.7,334.7 55.3,0 108.6,-8.4 158.8,-23.9 24.8,-12.4 51.1,-28 78.5,-47.5 151.8,-107.6 193.2,-356.1 193.2,-356.1 0,0 -11,13.1 -31.6,31.8 -58.4,163.9 -215.2,281.6 -398.9,281.6 -233.4,0 -423.3,-189.9 -423.3,-423.3 0,-60.9 13,-118.9 36.2,-171.3"
         style="fill:#c0c3d9;fill-opacity:1;fill-rule:nonzero;stroke:none"
         transform="matrix(0.13333333,0,0,-0.13333333,0,5333.3333)" />
      <path
         id="path12"
         d="m 10282.6,15089.6 c 14,40.7 34.5,95.2 42.1,119.8 11,35.9 129.7,129.7 132.8,143.5 2.4,11.3 150.8,57.3 223.7,78.5 12.1,0.3 24.1,0.5 35.9,0.5 68.4,0 131.6,-5.8 189.8,-16.8 10.4,-4.3 21.2,-9.2 32.2,-14.7 -50.2,15.5 -103.5,23.9 -158.8,23.9 -224.6,0 -417.5,-138.5 -497.7,-334.7"
         style="fill:#824640;fill-opacity:1;fill-rule:nonzero;stroke:none"
         transform="matrix(0.13333333,0,0,-0.13333333,0,5333.3333)" />
      <path
         id="path13"
         d="m 10396.1,14713.5 c 0,0 -1,0.8 -2.9,2.1 -23.2,52.4 -36.2,110.4 -36.2,171.3 0,233.4 189.9,423.3 423.3,423.3 183.7,0 340.5,-117.7 398.9,-281.6 -51.9,47.1 -165,130 -317.3,130 -38.9,0 -80.4,-5.4 -124.1,-18.2 -282.5,-82.8 -341.7,-426.9 -341.7,-426.9"
         style="fill:#9fa2b8;fill-opacity:1;fill-rule:nonzero;stroke:none"
         transform="matrix(0.13333333,0,0,-0.13333333,0,5333.3333)" />
      <path
         id="path14"
         d="m 6656.71,11107.2 c -47.57,56.4 -89.08,119.2 -124.45,188.4 -72.61,141.9 -113.27,299.6 -132.38,459.6 29.38,93.1 62.86,187.2 100.27,281.9 -0.23,-13.3 -0.35,-26.5 -0.34,-39.9 0.03,-125.1 10.71,-252.7 37.72,-375.2 11.37,-176.8 46.39,-354.5 119.18,-514.8 m 9976.59,5411.6 c 6.2,0.5 12.2,0.9 17.9,1.4 l -340.6,867.1 c 36.2,10.8 73,21.5 110,31.9 l 351.6,-895.3 c -45.1,-0.6 -91.5,-2.3 -138.9,-5.1"
         style="fill:#c0c3d9;fill-opacity:1;fill-rule:nonzero;stroke:none"
         transform="matrix(0.13333333,0,0,-0.13333333,0,5333.3333)" />
      <path
         id="path15"
         d="m 16772.2,16523.9 -351.6,895.3 c 2.8,0.8 5.3,1.5 8.1,2.3 l 307,-781.8 v -0.1 l 48.3,-115.5 c -3.9,0 -7.9,-0.1 -11.8,-0.2"
         style="fill:#8085a2;fill-opacity:1;fill-rule:nonzero;stroke:none"
         transform="matrix(0.13333333,0,0,-0.13333333,0,5333.3333)" />
      <path
         id="path16"
         d="m 8032.77,9444.8 c -1018.24,0 -1640.46,625.6 -1640.46,625.6 -203.82,470.6 -190.67,1056.6 7.57,1684.8 19.11,-160 59.77,-317.7 132.38,-459.6 35.37,-69.2 76.88,-132 124.45,-188.4 7.6,-16.8 15.61,-33.3 24.05,-49.7 158.85,-307.7 440.49,-490 837.13,-541.8 83.1,-10.8 162.44,-16 238.51,-16 805.36,0 1234.88,579.9 1651.43,1142.2 244.59,330.3 497.56,671.8 824.57,892.9 342.4,231.5 763.1,375.8 1170,515.4 731.8,251.1 1423,488.2 1693.2,1189.9 l 4.2,11 c 401.1,1042.1 947.5,2459.1 3210.8,3136.2 l 340.6,-867.1 c -5.7,-0.5 -11.7,-0.9 -17.9,-1.4 -730.7,-43.8 -1708,-353.9 -2187.4,-1098.9 -529.4,-822.7 -440.2,-1971.1 -1153.4,-2517.7 -713.3,-546.6 -1671.6,-767.4 -2357,-1137.4 -685.4,-369.9 -869.2,-855.7 -1075.4,-1325 -206.18,-469.3 -685.37,-960.7 -1749.63,-993.8 -26.18,-0.8 -52.02,-1.2 -77.7,-1.2"
         style="fill:#824640;fill-opacity:1;fill-rule:nonzero;stroke:none"
         transform="matrix(0.13333333,0,0,-0.13333333,0,5333.3333)" />
      <path
         id="path17"
         d="m 7750.4,10897.8 c -863.9,43.3 -668.26,1193.4 -668.26,1193.4 0,0 224.33,-464 748.85,-463.9 107.46,0 227.57,19.5 360.88,66.4 784,276.1 712.47,1069.2 255.81,1601.1 -97.4,113.5 -346.08,134.9 -519.87,134.9 -105.32,0 -183.15,-7.9 -183.15,-7.9 2365.34,2282.4 7126.04,5309.4 7693.34,5667.3 l 386.1,-983.1 c -116.5,-11 -478.4,-58.5 -1113.6,-254.4 -787.7,-242.9 -2017,-1074.8 -2370.4,-1928.7 -353.4,-853.9 -846.6,-1285.4 -846.6,-1285.4 -22.2,383.2 -188.3,702.5 -586.6,777.6 -59,24.6 -108.1,31.1 -142.8,31.1 -21.8,0 -38,-2.6 -47.4,-4.9 -6.2,-1.6 -18.9,-5.1 -35.5,-9.9 -33.8,-1 -68.9,-3.3 -105.2,-7.1 -640.42,-66.2 -831.8,-707.3 -423.2,-1190.9 286.8,-339.5 761.1,-390 1018.1,-390 109.1,0 179.1,9.1 179.1,9.1 0,0 -358.9,-154.6 -1126.3,-480.4 -632.58,-268.5 -941.47,-856 -1267.43,-1400.1 -6.01,-8.1 -12.1,-16.3 -18.09,-24.5 -340.82,-464.4 -667.62,-909 -1187.78,-1049.7"
         style="fill:#824640;fill-opacity:1;fill-rule:nonzero;stroke:none"
         transform="matrix(0.13333333,0,0,-0.13333333,0,5333.3333)" />
      <path
         id="path18"
         d="m 10906.9,15415.1 c -58.2,11 -121.4,16.8 -189.8,16.8 -11.8,0 -23.8,-0.2 -35.9,-0.5 16.6,4.8 29.3,8.3 35.5,9.9 9.4,2.3 25.6,4.9 47.4,4.9 34.7,0 83.8,-6.5 142.8,-31.1"
         style="fill:#62394a;fill-opacity:1;fill-rule:nonzero;stroke:none"
         transform="matrix(0.13333333,0,0,-0.13333333,0,5333.3333)" />
      <path
         id="path19"
         d="m 17349.2,18106 -357.2,772.9 c -197.7,427.6 -64.9,935.1 317.2,1210.8 2336.2,1685.3 10269.1,7450.4 13602.2,10409 0,0 -3757.5,-9187.2 -12007.6,-12008.7 l -1554.6,-384"
         style="fill:#cccdd3;fill-opacity:1;fill-rule:nonzero;stroke:none"
         transform="matrix(0.13333333,0,0,-0.13333333,0,5333.3333)" />
      <path
         id="path20"
         d="m 8082.86,14686.3 c 0.37,0.2 0.78,0.5 1.2,0.8 -0.42,-0.3 -0.83,-0.6 -1.2,-0.8 m 1.63,1.2 c 145.78,107.2 3147.31,2317.1 7181.81,5331.2 v 0 C 11231.7,17004.5 8230.29,14794.8 8084.49,14687.5 m 7384.91,4841.9 -191,486.2 v 0 l 191,-486.2 c -0.1,0 0,0 0,0"
         style="fill:#ffffff;fill-opacity:1;fill-rule:nonzero;stroke:none"
         transform="matrix(0.13333333,0,0,-0.13333333,0,5333.3333)" />
      <path
         id="path21"
         d="m 6678.82,11271.8 c -6.21,9.7 -13.26,18.6 -19.14,28.6 v 0 c -57.87,98.6 -97.06,207.9 -122.15,321.6 -13.24,206 5.6,410.9 34.23,586.3 -25.28,-57.3 -49.16,-114.3 -71.61,-171.2 7.68,441.4 141.37,841.2 147.28,857.8 l 0.4,1.7 c 338.65,610 824.96,1226.6 1435.03,1789.7 v 0 c 0.37,0.2 0.78,0.5 1.2,0.8 0.14,0.2 0.28,0.3 0.43,0.4 145.8,107.3 3147.21,2317 7181.81,5331.2 3.8,-1 7.8,-2 12.1,-3.1 l 191,-486.2 C 14749.5,19038 8755.94,14935.7 7653.53,13835.9 6667.98,12852.7 6657.09,11636 6678.82,11271.8"
         style="fill:#ce9b85;fill-opacity:1;fill-rule:nonzero;stroke:none"
         transform="matrix(0.13333333,0,0,-0.13333333,0,5333.3333)" />
      <path
         id="path22"
         d="m 6537.53,11622 c -27.01,122.5 -37.69,250.1 -37.72,375.2 -0.01,13.4 0.11,26.6 0.34,39.9 22.45,56.9 46.33,113.9 71.61,171.2 -28.63,-175.4 -47.47,-380.3 -34.23,-586.3"
         style="fill:#b4908c;fill-opacity:1;fill-rule:nonzero;stroke:none"
         transform="matrix(0.13333333,0,0,-0.13333333,0,5333.3333)" />
      <path
         id="path23"
         d="m 30931.7,26564.9 c 285.5,464.2 562.3,940 829.3,1428.3 -3,-9.5 -6.1,-18.9 -9.2,-28.5 -242.3,-452.2 -517.7,-930.6 -820.1,-1399.8"
         style="fill:#ffffff;fill-opacity:1;fill-rule:nonzero;stroke:none"
         transform="matrix(0.13333333,0,0,-0.13333333,0,5333.3333)" />
      <path
         id="path24"
         d="m 31943.5,28580 1305.7,2769.8 c -415.6,-987.1 -853.1,-1909 -1305.7,-2769.8"
         style="fill:#e0e1e5;fill-opacity:1;fill-rule:nonzero;stroke:none"
         transform="matrix(0.13333333,0,0,-0.13333333,0,5333.3333)" />
      <path
         id="path25"
         d="m 31751.8,27964.7 c 3.1,9.6 6.2,19 9.2,28.5 74.7,136.4 148.2,274.3 221.4,412.6 -73,-143.2 -150,-290.7 -230.6,-441.1"
         style="fill:#ffffff;fill-opacity:1;fill-rule:nonzero;stroke:none"
         transform="matrix(0.13333333,0,0,-0.13333333,0,5333.3333)" />
      <path
         id="path26"
         d="m 17763.4,20433.4 4190.8,-512.2 1035.3,401.8 1635.6,1369.3 -5191.3,220.8 1760.4,1280.9 5088.6,-198.8 350.6,601.6 -4593.6,215.6 c 0,0 -4113.9,-3047.7 -4276.4,-3379"
         style="fill:#aaacb5;fill-opacity:1;fill-rule:nonzero;stroke:none"
         transform="matrix(0.13333333,0,0,-0.13333333,0,5333.3333)" />
      <path
         id="path27"
         d="m 27450.5,24651.6 c -144.9,72.1 -2825.4,220.8 -2825.4,220.8 l 3200.9,522.7 -375.5,-743.5"
         style="fill:#aaacb5;fill-opacity:1;fill-rule:nonzero;stroke:none"
         transform="matrix(0.13333333,0,0,-0.13333333,0,5333.3333)" />
      <path
         id="path28"
         d="m 26534,27147.2 h 662.6 l -430.7,198.7 z"
         style="fill:#aaacb5;fill-opacity:1;fill-rule:nonzero;stroke:none"
         transform="matrix(0.13333333,0,0,-0.13333333,0,5333.3333)" />
      <path
         id="path29"
         d="m 11521.1,16552.3 1292,-408.6 342.3,485.9 -1049.1,287.1 554.3,287.1 903.3,-231.9 165.7,132.5 -927.6,320.3 -1280.9,-872.4"
         style="fill:#ad5833;fill-opacity:1;fill-rule:nonzero;stroke:none"
         transform="matrix(0.13333333,0,0,-0.13333333,0,5333.3333)" />
      <path
         id="path30"
         d="m 25714.2,19141.9 -1327.7,97.1 1568.6,1287.8 436.8,401.4 1633.8,147.8 780.3,1015.9 h -1257.1 l 534.6,591.6 h 1282 c 0,0 -2452.3,-2737.2 -3651.3,-3541.6"
         style="fill:#ffffff;fill-opacity:1;fill-rule:nonzero;stroke:none"
         transform="matrix(0.13333333,0,0,-0.13333333,0,5333.3333)" />
      <path
         id="path32"
         d="m 15355.1,20155.1 -35.6,90.7 c 5790.8,4327.1 13660.3,10274.8 18289.7,14055.1 5.8,-27.3 12.6,-61 19.9,-100.8 -4647.8,-3796 -12493.7,-9726.1 -18274,-14045 M 30324.4,31632.3 C 27481.9,29452.1 23218.2,26182.1 19973,23693.8 c 3513.8,2650.3 7244.4,5495.9 10351.4,7938.5"
         style="fill:#f1d9ff;fill-opacity:1;fill-rule:nonzero;stroke:none"
         transform="matrix(0.13333333,0,0,-0.13333333,0,5333.3333)" />
      <path
         id="path33"
         d="m 17906.1,13837.1 -5.7,13.7 c -1,3.5 -2.1,7 -3.2,10.5 3,-8.2 6,-16.2 8.9,-24.2 m -2529.7,6263.8 -21.3,54.2 c 5780.3,4318.9 13626.2,10249 18274,14045 3.7,-20 7.5,-41.4 11.4,-64.4 C 29010.3,30356 21158.9,24421.8 15376.4,20100.9"
         style="fill:#ffffff;fill-opacity:1;fill-rule:nonzero;stroke:none"
         transform="matrix(0.13333333,0,0,-0.13333333,0,5333.3333)" />
      <path
         id="path34"
         d="M 17900.4,13850.8 16784,16524.1 c 4.4,0 8.6,0.1 13,0.1 l -356.9,900.5 c -3.8,-1.1 -7.7,-2.2 -11.4,-3.2 l -1052.3,2679.4 c 5782.5,4320.9 13633.9,10255.1 18264.1,14034.8 24.2,-142.2 52.1,-342.4 72.4,-594.9 -4490.4,-3638.3 -11624.5,-9038.6 -17143.8,-13167.9 -402.5,-301.1 -553.8,-833.8 -370,-1301.6 l 1105,-2813.8 v -0.1 l 453.7,-1086.1 c -6.2,-50.1 -10.7,-94.3 -14.2,-129.8 -47.7,-482.1 48.9,-891.7 153.6,-1180.2 1.1,-3.5 2.2,-7 3.2,-10.5"
         style="fill:#cccdd3;fill-opacity:1;fill-rule:nonzero;stroke:none"
         transform="matrix(0.13333333,0,0,-0.13333333,0,5333.3333)" />
      <path
         id="path35"
         d="m 16784,16524.1 -48.3,115.5 v 0.1 l -307,781.8 c 3.7,1 7.6,2.1 11.4,3.2 l 356.9,-900.5 c -4.4,0 -8.6,-0.1 -13,-0.1"
         style="fill:#b3b6c7;fill-opacity:1;fill-rule:nonzero;stroke:none"
         transform="matrix(0.13333333,0,0,-0.13333333,0,5333.3333)" />
      <path
         id="path36"
         d="m 19973,23693.8 c 3245.2,2488.3 7508.9,5758.3 10351.4,7938.5 -3107,-2442.6 -6837.6,-5288.2 -10351.4,-7938.5"
         style="fill:#f7e8ff;fill-opacity:1;fill-rule:nonzero;stroke:none"
         transform="matrix(0.13333333,0,0,-0.13333333,0,5333.3333)" />
      <path
         id="path37"
         d="m 17995.2,13623.8 c -27.8,59.8 -58.6,131.7 -89.1,213.3 l 89.1,-213.3"
         style="fill:#ffffff;fill-opacity:1;fill-rule:nonzero;stroke:none"
         transform="matrix(0.13333333,0,0,-0.13333333,0,5333.3333)" />
      <path
         id="path38"
         d="M 8142.05,14614.5 C 7358.16,13890.2 6774.86,13080 6454.84,12271.1 c -293.75,-742.5 -337.4,-1426.5 -122.99,-1926 255.76,-596 844.82,-880.4 1704.73,-824.3 1357.57,89.5 1567.97,521.7 1834.33,1068.9 247.49,508.4 527.99,1084.6 1655.79,1512.9 2014.3,764.9 2121.9,1127.1 2478.6,2327.2 43.3,145.7 88.1,296.3 140.7,463.3 527,1674.1 2564.3,1724.2 2584.8,1724.5 h 2.3 c 60.4,0 115.1,-36.2 138.4,-92.1 L 18131,13509.8 c 9385.9,5415.8 13080.9,10745.1 14527.4,14270 1301,3170.5 1063.1,5484.3 938.9,6200.7 -7935,-6465.9 -25029.86,-19053 -25455.25,-19366 z M 7833.07,9213.9 c -868.07,0 -1494.49,354.8 -1776.91,1012.9 -519.97,1211.5 256.64,3108.8 1888.58,4613.8 4.1,3.8 8.35,7.3 12.84,10.6 176.46,129.8 17741.32,13058.2 25641.52,19518 39.4,32.2 92.3,42.2 140.5,26.8 48.3,-15.4 85.6,-54.2 99.1,-103.1 29.6,-107.8 707.4,-2683.7 -891.9,-6600.4 -935.1,-2290.1 -2462,-4562.4 -4538.3,-6754 C 25819,18205.4 22361.8,15590 18132.8,13164.7 c -37.3,-21.5 -82.1,-25.8 -122.8,-11.9 -40.8,13.8 -73.7,44.5 -90.3,84.2 l -1283.9,3074.4 c -389.4,-33.5 -1805,-241.9 -2203.7,-1508.3 -51.9,-164.8 -96.3,-314.2 -139.2,-458.7 -368.7,-1240.5 -506.7,-1704.7 -2659.6,-2522.3 -1016.7,-386 -1258.6,-883.1 -1492.6,-1363.7 -284.39,-584.2 -552.99,-1136 -2084.39,-1236.9 -76.03,-5.1 -150.54,-7.6 -223.24,-7.6"
         style="fill:#021168;fill-opacity:1;fill-rule:nonzero;stroke:none"
         transform="matrix(0.13333333,0,0,-0.13333333,0,5333.3333)" />
      <path
         id="path39"
         d="m 16733.1,16317.6 c -59.9,0 -116.4,36.1 -139.6,95.2 l -1432.3,3647 c -30.3,77.1 7.7,164.1 84.8,194.4 77.2,30.4 164.2,-7.7 194.4,-84.7 l 1432.3,-3647 c 30.3,-77.1 -7.7,-164.2 -84.8,-194.5 -18,-7 -36.6,-10.4 -54.8,-10.4"
         style="fill:#021168;fill-opacity:1;fill-rule:nonzero;stroke:none"
         transform="matrix(0.13333333,0,0,-0.13333333,0,5333.3333)" />
      <path
         id="path40"
         d="m 7603.67,10644.4 c -80.91,0 -165.43,5.5 -254.05,17.2 -425.29,56 -728.22,255.2 -900.34,592 -358.69,701.9 9.32,1726.9 13.96,1735.5 39.26,72.9 130.18,100.3 203.22,60.8 68.51,-37 96.68,-119.6 67.14,-189.9 -69.72,-187.8 -282.17,-1032 10.36,-1519.6 129.98,-216.6 340.91,-341.3 644.82,-381.3 833.01,-109.8 1224.66,424.7 1678.76,1043.4 252.64,344.3 513.96,700.3 867.24,941.5 362.02,247 792.22,395.9 1208.12,539.9 678.3,234.8 1318.8,456.6 1552.1,1068 l 4.2,11.2 c 423.7,1110.5 1003.8,2631.4 3497.8,3313.6 79.9,21.8 162.4,-25.2 184.2,-105.1 21.9,-79.9 -25.2,-162.5 -105.1,-184.3 -2347.1,-642 -2895.9,-2080.6 -3296.5,-3131.1 l -4.3,-11.2 c -283.2,-742.2 -1020.8,-997.6 -1734.2,-1244.6 -397.4,-137.6 -808.2,-279.8 -1137.2,-504.3 -310.92,-212.1 -556.77,-547.1 -794.52,-871.1 -426.61,-581.3 -866.5,-1180.6 -1705.71,-1180.6"
         style="fill:#021168;fill-opacity:1;fill-rule:nonzero;stroke:none"
         transform="matrix(0.13333333,0,0,-0.13333333,0,5333.3333)" />
      <path
         id="path41"
         d="m 8114.56,12926.9 c -195.95,0 -355.37,-159.4 -355.37,-355.3 0,-196 159.42,-355.4 355.37,-355.4 195.95,0 355.32,159.4 355.32,355.4 0,195.9 -159.37,355.3 -355.32,355.3 z m 0,-960.7 c -333.79,0 -605.37,271.6 -605.37,605.4 0,333.7 271.58,605.3 605.37,605.3 333.79,0 605.32,-271.6 605.32,-605.3 0,-333.8 -271.53,-605.4 -605.32,-605.4"
         style="fill:#021168;fill-opacity:1;fill-rule:nonzero;stroke:none"
         transform="matrix(0.13333333,0,0,-0.13333333,0,5333.3333)" />
      <path
         id="path42"
         d="m 10780.3,15242.3 c -196,0 -355.3,-159.5 -355.3,-355.4 0,-196 159.3,-355.3 355.3,-355.3 195.9,0 355.4,159.3 355.4,355.3 0,195.9 -159.5,355.4 -355.4,355.4 z m 0,-960.7 c -333.8,0 -605.3,271.5 -605.3,605.3 0,333.8 271.5,605.4 605.3,605.4 333.8,0 605.4,-271.6 605.4,-605.4 0,-333.8 -271.6,-605.3 -605.4,-605.3"
         style="fill:#021168;fill-opacity:1;fill-rule:nonzero;stroke:none"
         transform="matrix(0.13333333,0,0,-0.13333333,0,5333.3333)" />
    </g>
  </g>
</svg>
